<svg width="24" height="24" viewBox="0 0 24 24" fill="none" xmlns="http://www.w3.org/2000/svg">
<path d="M11.45 4.45C11.2843 4.45 11.15 4.58431 11.15 4.75C11.15 4.91569 11.2843 5.05 11.45 5.05V4.75V4.45ZM12.65 5.05C12.8157 5.05 12.95 4.91569 12.95 4.75C12.95 4.58431 12.8157 4.45 12.65 4.45V4.75V5.05ZM11.4 8.85816C11.2343 8.85816 11.1 8.99248 11.1 9.15816C11.1 9.32385 11.2343 9.45816 11.4 9.45816V9.15816V8.85816ZM12.6 9.45816C12.7657 9.45816 12.9 9.32385 12.9 9.15816C12.9 8.99248 12.7657 8.85816 12.6 8.85816V9.15816V9.45816ZM8.3 2.5V2.8H15.7V2.5V2.2H8.3V2.5ZM16.5 3.23469H16.2V10.7653H16.5H16.8V3.23469H16.5ZM15.7 11.5V11.2H8.3V11.5V11.8H15.7V11.5ZM7.5 10.7653H7.8V3.23469H7.5H7.2V10.7653H7.5ZM8.3 11.5V11.2C7.9993 11.2 7.8 10.9818 7.8 10.7653H7.5H7.2C7.2 11.3603 7.71705 11.8 8.3 11.8V11.5ZM16.5 10.7653H16.2C16.2 10.9818 16.0007 11.2 15.7 11.2V11.5V11.8C16.283 11.8 16.8 11.3603 16.8 10.7653H16.5ZM15.7 2.5V2.8C16.0007 2.8 16.2 3.01816 16.2 3.23469H16.5H16.8C16.8 2.63971 16.283 2.2 15.7 2.2V2.5ZM8.3 2.5V2.2C7.71705 2.2 7.2 2.63971 7.2 3.23469H7.5H7.8C7.8 3.01816 7.9993 2.8 8.3 2.8V2.5ZM7.525 7V7.3H16.475V7V6.7H7.525V7ZM11.45 4.75V5.05H12.65V4.75V4.45H11.45V4.75ZM11.4 9.15816V9.45816H12.6V9.15816V8.85816H11.4V9.15816Z" fill="#8C8C8C"/>
<path d="M4.33289 16.3594C5.48719 16.3594 6.20789 16.7344 6.20789 17.3672C6.20789 17.9883 5.48719 18.3574 4.33289 18.3574C3.18445 18.3574 2.45789 17.9883 2.45789 17.3672C2.45789 16.7344 3.18445 16.3594 4.33289 16.3594ZM4.33289 16.7988C3.5243 16.7988 3.02625 17.0039 3.03211 17.3672C3.02625 17.7188 3.5243 17.918 4.33289 17.9238C5.13562 17.918 5.63367 17.7188 5.63367 17.3672C5.63367 17.0039 5.13562 16.7988 4.33289 16.7988ZM6.14344 19.6816V21.4336H2.51648V19.6816H6.14344ZM3.06727 20.127V20.9824H5.60437V20.127H3.06727ZM6.72937 18.7617V19.2129H1.94227V18.7617H6.72937ZM8.54437 16.5527C9.34711 16.5527 9.93891 17.0684 9.94477 17.8066C9.93891 18.5449 9.34711 19.0605 8.54437 19.0605C7.74164 19.0605 7.14398 18.5449 7.14984 17.8066C7.14398 17.0684 7.74164 16.5527 8.54437 16.5527ZM8.54437 17.0273C8.05219 17.0273 7.68891 17.3379 7.69477 17.8066C7.68891 18.2812 8.05219 18.5918 8.54437 18.5859C9.03656 18.5918 9.39984 18.2812 9.39984 17.8066C9.39984 17.3379 9.03656 17.0273 8.54437 17.0273ZM11.1928 16.248V17.5664H11.9545V18.0234H11.1928V19.3301H10.6362V16.248H11.1928ZM11.1928 19.5879V21.5039H10.6362V20.0391H7.72406V19.5879H11.1928ZM14.0859 17.584C14.0859 18.5449 14.625 19.5 15.4277 19.8633L15.0879 20.3086C14.4902 20.0098 14.042 19.415 13.8105 18.6973C13.5791 19.4531 13.1191 20.0918 12.5156 20.4082L12.1641 19.957C12.9785 19.5703 13.5234 18.5566 13.5234 17.584V16.6875H14.0859V17.584ZM16.5703 16.248V21.5098H16.0195V18.4453H14.8477V17.9941H16.0195V16.248H16.5703ZM21.4439 16.2539V17.4785H22.2115V17.9473H21.4439V19.1484H20.8873V16.2539H21.4439ZM18.6373 19.3711V19.9629H20.8873V19.3711H21.4439V21.4336H18.0865V19.3711H18.6373ZM18.6373 20.9824H20.8873V20.4023H18.6373V20.9824ZM19.9205 16.5V17.9531H18.0923V18.5859C19.0035 18.5771 19.648 18.5508 20.4127 18.4102L20.4712 18.8672C19.6568 19.0078 18.9654 19.043 17.9576 19.043H17.5357V17.5254H19.3755V16.957H17.5298V16.5H19.9205Z" fill="#8C8C8C"/>
</svg>
